<?xml version="1.0" encoding="utf-8" standalone="no"?>
<!DOCTYPE svg PUBLIC "-//W3C//DTD SVG 1.1//EN"
  "http://www.w3.org/Graphics/SVG/1.1/DTD/svg11.dtd">
<svg xmlns:xlink="http://www.w3.org/1999/xlink" width="576pt" height="432pt" viewBox="0 0 576 432" xmlns="http://www.w3.org/2000/svg" version="1.1">
 <metadata>
  <rdf:RDF xmlns:dc="http://purl.org/dc/elements/1.1/" xmlns:cc="http://creativecommons.org/ns#" xmlns:rdf="http://www.w3.org/1999/02/22-rdf-syntax-ns#">
   <cc:Work>
    <dc:type rdf:resource="http://purl.org/dc/dcmitype/StillImage"/>
    <dc:date>2023-03-18T02:38:41.514922</dc:date>
    <dc:format>image/svg+xml</dc:format>
    <dc:creator>
     <cc:Agent>
      <dc:title>Matplotlib v3.6.2, https://matplotlib.org/</dc:title>
     </cc:Agent>
    </dc:creator>
   </cc:Work>
  </rdf:RDF>
 </metadata>
 <defs>
  <style type="text/css">*{stroke-linejoin: round; stroke-linecap: butt}</style>
 </defs>
 <g id="figure_1">
  <g id="patch_1">
   <path d="M 0 432 
L 576 432 
L 576 0 
L 0 0 
z
" style="fill: #ffffff"/>
  </g>
  <g id="axes_1">
   <g id="patch_2">
    <path d="M 24.88 404.12 
L 565.2 404.12 
L 565.2 25.44 
L 24.88 25.44 
z
" style="fill: #ffffff"/>
   </g>
   <g id="patch_3">
    <path d="M 49.44 404.12 
L 71.21734 404.12 
L 71.21734 43.472381 
L 49.44 43.472381 
z
" clip-path="url(#p426a6d44e7)" style="fill: #1f77b4"/>
   </g>
   <g id="patch_4">
    <path d="M 218.81931 404.12 
L 240.59665 404.12 
L 240.59665 60.295992 
L 218.81931 60.295992 
z
" clip-path="url(#p426a6d44e7)" style="fill: #1f77b4"/>
   </g>
   <g id="patch_5">
    <path d="M 388.198621 404.12 
L 409.975961 404.12 
L 409.975961 53.752955 
L 388.198621 53.752955 
z
" clip-path="url(#p426a6d44e7)" style="fill: #1f77b4"/>
   </g>
   <g id="patch_6">
    <path d="M 71.21734 404.12 
L 92.99468 404.12 
L 92.99468 166.065578 
L 71.21734 166.065578 
z
" clip-path="url(#p426a6d44e7)" style="fill: #ff7f0e"/>
   </g>
   <g id="patch_7">
    <path d="M 240.59665 404.12 
L 262.37399 404.12 
L 262.37399 179.079467 
L 240.59665 179.079467 
z
" clip-path="url(#p426a6d44e7)" style="fill: #ff7f0e"/>
   </g>
   <g id="patch_8">
    <path d="M 409.975961 404.12 
L 431.7533 404.12 
L 431.7533 179.121532 
L 409.975961 179.121532 
z
" clip-path="url(#p426a6d44e7)" style="fill: #ff7f0e"/>
   </g>
   <g id="patch_9">
    <path d="M 92.99468 404.12 
L 114.77202 404.12 
L 114.77202 183.072586 
L 92.99468 183.072586 
z
" clip-path="url(#p426a6d44e7)" style="fill: #2ca02c"/>
   </g>
   <g id="patch_10">
    <path d="M 262.37399 404.12 
L 284.15133 404.12 
L 284.15133 166.567671 
L 262.37399 166.567671 
z
" clip-path="url(#p426a6d44e7)" style="fill: #2ca02c"/>
   </g>
   <g id="patch_11">
    <path d="M 431.7533 404.12 
L 453.53064 404.12 
L 453.53064 176.754294 
L 431.7533 176.754294 
z
" clip-path="url(#p426a6d44e7)" style="fill: #2ca02c"/>
   </g>
   <g id="patch_12">
    <path d="M 114.77202 404.12 
L 136.54936 404.12 
L 136.54936 183.965903 
L 114.77202 183.965903 
z
" clip-path="url(#p426a6d44e7)" style="fill: #d62728"/>
   </g>
   <g id="patch_13">
    <path d="M 284.15133 404.12 
L 305.92867 404.12 
L 305.92867 147.012278 
L 284.15133 147.012278 
z
" clip-path="url(#p426a6d44e7)" style="fill: #d62728"/>
   </g>
   <g id="patch_14">
    <path d="M 453.53064 404.12 
L 475.30798 404.12 
L 475.30798 152.96861 
L 453.53064 152.96861 
z
" clip-path="url(#p426a6d44e7)" style="fill: #d62728"/>
   </g>
   <g id="patch_15">
    <path d="M 136.54936 404.12 
L 158.3267 404.12 
L 158.3267 169.303852 
L 136.54936 169.303852 
z
" clip-path="url(#p426a6d44e7)" style="fill: #9467bd"/>
   </g>
   <g id="patch_16">
    <path d="M 305.92867 404.12 
L 327.70601 404.12 
L 327.70601 180.552518 
L 305.92867 180.552518 
z
" clip-path="url(#p426a6d44e7)" style="fill: #9467bd"/>
   </g>
   <g id="patch_17">
    <path d="M 475.30798 404.12 
L 497.08532 404.12 
L 497.08532 177.482863 
L 475.30798 177.482863 
z
" clip-path="url(#p426a6d44e7)" style="fill: #9467bd"/>
   </g>
   <g id="patch_18">
    <path d="M 158.3267 404.12 
L 180.104039 404.12 
L 180.104039 139.324327 
L 158.3267 139.324327 
z
" clip-path="url(#p426a6d44e7)" style="fill: #8c564b"/>
   </g>
   <g id="patch_19">
    <path d="M 327.70601 404.12 
L 349.48335 404.12 
L 349.48335 156.994667 
L 327.70601 156.994667 
z
" clip-path="url(#p426a6d44e7)" style="fill: #8c564b"/>
   </g>
   <g id="patch_20">
    <path d="M 497.08532 404.12 
L 518.86266 404.12 
L 518.86266 143.715305 
L 497.08532 143.715305 
z
" clip-path="url(#p426a6d44e7)" style="fill: #8c564b"/>
   </g>
   <g id="patch_21">
    <path d="M 180.104039 404.12 
L 201.881379 404.12 
L 201.881379 171.978948 
L 180.104039 171.978948 
z
" clip-path="url(#p426a6d44e7)" style="fill: #e377c2"/>
   </g>
   <g id="patch_22">
    <path d="M 349.48335 404.12 
L 371.26069 404.12 
L 371.26069 166.680982 
L 349.48335 166.680982 
z
" clip-path="url(#p426a6d44e7)" style="fill: #e377c2"/>
   </g>
   <g id="patch_23">
    <path d="M 518.86266 404.12 
L 540.64 404.12 
L 540.64 173.388016 
L 518.86266 173.388016 
z
" clip-path="url(#p426a6d44e7)" style="fill: #e377c2"/>
   </g>
   <g id="matplotlib.axis_1">
    <g id="xtick_1">
     <g id="line2d_1">
      <defs>
       <path id="mbf4371567b" d="M 0 0 
L 0 3.5 
" style="stroke: #000000; stroke-width: 0.8"/>
      </defs>
      <g>
       <use xlink:href="#mbf4371567b" x="125.66069" y="404.12" style="stroke: #000000; stroke-width: 0.8"/>
      </g>
     </g>
     <g id="text_1">
      <!-- 1 -->
      <g transform="translate(122.47944 418.718437) scale(0.1 -0.1)">
       <defs>
        <path id="DejaVuSans-31" d="M 794 531 
L 1825 531 
L 1825 4091 
L 703 3866 
L 703 4441 
L 1819 4666 
L 2450 4666 
L 2450 531 
L 3481 531 
L 3481 0 
L 794 0 
L 794 531 
z
" transform="scale(0.015625)"/>
       </defs>
       <use xlink:href="#DejaVuSans-31"/>
      </g>
     </g>
    </g>
    <g id="xtick_2">
     <g id="line2d_2">
      <g>
       <use xlink:href="#mbf4371567b" x="295.04" y="404.12" style="stroke: #000000; stroke-width: 0.8"/>
      </g>
     </g>
     <g id="text_2">
      <!-- 10 -->
      <g transform="translate(288.6775 418.718437) scale(0.1 -0.1)">
       <defs>
        <path id="DejaVuSans-30" d="M 2034 4250 
Q 1547 4250 1301 3770 
Q 1056 3291 1056 2328 
Q 1056 1369 1301 889 
Q 1547 409 2034 409 
Q 2525 409 2770 889 
Q 3016 1369 3016 2328 
Q 3016 3291 2770 3770 
Q 2525 4250 2034 4250 
z
M 2034 4750 
Q 2819 4750 3233 4129 
Q 3647 3509 3647 2328 
Q 3647 1150 3233 529 
Q 2819 -91 2034 -91 
Q 1250 -91 836 529 
Q 422 1150 422 2328 
Q 422 3509 836 4129 
Q 1250 4750 2034 4750 
z
" transform="scale(0.015625)"/>
       </defs>
       <use xlink:href="#DejaVuSans-31"/>
       <use xlink:href="#DejaVuSans-30" x="63.623047"/>
      </g>
     </g>
    </g>
    <g id="xtick_3">
     <g id="line2d_3">
      <g>
       <use xlink:href="#mbf4371567b" x="464.41931" y="404.12" style="stroke: #000000; stroke-width: 0.8"/>
      </g>
     </g>
     <g id="text_3">
      <!-- 50 -->
      <g transform="translate(458.05681 418.718437) scale(0.1 -0.1)">
       <defs>
        <path id="DejaVuSans-35" d="M 691 4666 
L 3169 4666 
L 3169 4134 
L 1269 4134 
L 1269 2991 
Q 1406 3038 1543 3061 
Q 1681 3084 1819 3084 
Q 2600 3084 3056 2656 
Q 3513 2228 3513 1497 
Q 3513 744 3044 326 
Q 2575 -91 1722 -91 
Q 1428 -91 1123 -41 
Q 819 9 494 109 
L 494 744 
Q 775 591 1075 516 
Q 1375 441 1709 441 
Q 2250 441 2565 725 
Q 2881 1009 2881 1497 
Q 2881 1984 2565 2268 
Q 2250 2553 1709 2553 
Q 1456 2553 1204 2497 
Q 953 2441 691 2322 
L 691 4666 
z
" transform="scale(0.015625)"/>
       </defs>
       <use xlink:href="#DejaVuSans-35"/>
       <use xlink:href="#DejaVuSans-30" x="63.623047"/>
      </g>
     </g>
    </g>
   </g>
   <g id="matplotlib.axis_2">
    <g id="ytick_1"/>
    <g id="ytick_2"/>
    <g id="ytick_3"/>
    <g id="ytick_4"/>
    <g id="ytick_5"/>
    <g id="ytick_6"/>
    <g id="ytick_7"/>
    <g id="ytick_8"/>
    <g id="text_4">
     <!-- ns -->
     <g transform="translate(18.800313 220.553437) rotate(-90) scale(0.1 -0.1)">
      <defs>
       <path id="DejaVuSans-6e" d="M 3513 2113 
L 3513 0 
L 2938 0 
L 2938 2094 
Q 2938 2591 2744 2837 
Q 2550 3084 2163 3084 
Q 1697 3084 1428 2787 
Q 1159 2491 1159 1978 
L 1159 0 
L 581 0 
L 581 3500 
L 1159 3500 
L 1159 2956 
Q 1366 3272 1645 3428 
Q 1925 3584 2291 3584 
Q 2894 3584 3203 3211 
Q 3513 2838 3513 2113 
z
" transform="scale(0.015625)"/>
       <path id="DejaVuSans-73" d="M 2834 3397 
L 2834 2853 
Q 2591 2978 2328 3040 
Q 2066 3103 1784 3103 
Q 1356 3103 1142 2972 
Q 928 2841 928 2578 
Q 928 2378 1081 2264 
Q 1234 2150 1697 2047 
L 1894 2003 
Q 2506 1872 2764 1633 
Q 3022 1394 3022 966 
Q 3022 478 2636 193 
Q 2250 -91 1575 -91 
Q 1294 -91 989 -36 
Q 684 19 347 128 
L 347 722 
Q 666 556 975 473 
Q 1284 391 1588 391 
Q 1994 391 2212 530 
Q 2431 669 2431 922 
Q 2431 1156 2273 1281 
Q 2116 1406 1581 1522 
L 1381 1569 
Q 847 1681 609 1914 
Q 372 2147 372 2553 
Q 372 3047 722 3315 
Q 1072 3584 1716 3584 
Q 2034 3584 2315 3537 
Q 2597 3491 2834 3397 
z
" transform="scale(0.015625)"/>
      </defs>
      <use xlink:href="#DejaVuSans-6e"/>
      <use xlink:href="#DejaVuSans-73" x="63.378906"/>
     </g>
    </g>
   </g>
   <g id="patch_24">
    <path d="M 24.88 404.12 
L 24.88 25.44 
" style="fill: none; stroke: #000000; stroke-width: 0.8; stroke-linejoin: miter; stroke-linecap: square"/>
   </g>
   <g id="patch_25">
    <path d="M 565.2 404.12 
L 565.2 25.44 
" style="fill: none; stroke: #000000; stroke-width: 0.8; stroke-linejoin: miter; stroke-linecap: square"/>
   </g>
   <g id="patch_26">
    <path d="M 24.88 404.12 
L 565.2 404.12 
" style="fill: none; stroke: #000000; stroke-width: 0.8; stroke-linejoin: miter; stroke-linecap: square"/>
   </g>
   <g id="patch_27">
    <path d="M 24.88 25.44 
L 565.2 25.44 
" style="fill: none; stroke: #000000; stroke-width: 0.8; stroke-linejoin: miter; stroke-linecap: square"/>
   </g>
   <g id="text_5">
    <!-- 74.28 -->
    <g transform="translate(46.014607 38.392693) scale(0.1 -0.1)">
     <defs>
      <path id="DejaVuSans-37" d="M 525 4666 
L 3525 4666 
L 3525 4397 
L 1831 0 
L 1172 0 
L 2766 4134 
L 525 4134 
L 525 4666 
z
" transform="scale(0.015625)"/>
      <path id="DejaVuSans-34" d="M 2419 4116 
L 825 1625 
L 2419 1625 
L 2419 4116 
z
M 2253 4666 
L 3047 4666 
L 3047 1625 
L 3713 1625 
L 3713 1100 
L 3047 1100 
L 3047 0 
L 2419 0 
L 2419 1100 
L 313 1100 
L 313 1709 
L 2253 4666 
z
" transform="scale(0.015625)"/>
      <path id="DejaVuSans-2e" d="M 684 794 
L 1344 794 
L 1344 0 
L 684 0 
L 684 794 
z
" transform="scale(0.015625)"/>
      <path id="DejaVuSans-32" d="M 1228 531 
L 3431 531 
L 3431 0 
L 469 0 
L 469 531 
Q 828 903 1448 1529 
Q 2069 2156 2228 2338 
Q 2531 2678 2651 2914 
Q 2772 3150 2772 3378 
Q 2772 3750 2511 3984 
Q 2250 4219 1831 4219 
Q 1534 4219 1204 4116 
Q 875 4013 500 3803 
L 500 4441 
Q 881 4594 1212 4672 
Q 1544 4750 1819 4750 
Q 2544 4750 2975 4387 
Q 3406 4025 3406 3419 
Q 3406 3131 3298 2873 
Q 3191 2616 2906 2266 
Q 2828 2175 2409 1742 
Q 1991 1309 1228 531 
z
" transform="scale(0.015625)"/>
      <path id="DejaVuSans-38" d="M 2034 2216 
Q 1584 2216 1326 1975 
Q 1069 1734 1069 1313 
Q 1069 891 1326 650 
Q 1584 409 2034 409 
Q 2484 409 2743 651 
Q 3003 894 3003 1313 
Q 3003 1734 2745 1975 
Q 2488 2216 2034 2216 
z
M 1403 2484 
Q 997 2584 770 2862 
Q 544 3141 544 3541 
Q 544 4100 942 4425 
Q 1341 4750 2034 4750 
Q 2731 4750 3128 4425 
Q 3525 4100 3525 3541 
Q 3525 3141 3298 2862 
Q 3072 2584 2669 2484 
Q 3125 2378 3379 2068 
Q 3634 1759 3634 1313 
Q 3634 634 3220 271 
Q 2806 -91 2034 -91 
Q 1263 -91 848 271 
Q 434 634 434 1313 
Q 434 1759 690 2068 
Q 947 2378 1403 2484 
z
M 1172 3481 
Q 1172 3119 1398 2916 
Q 1625 2713 2034 2713 
Q 2441 2713 2670 2916 
Q 2900 3119 2900 3481 
Q 2900 3844 2670 4047 
Q 2441 4250 2034 4250 
Q 1625 4250 1398 4047 
Q 1172 3844 1172 3481 
z
" transform="scale(0.015625)"/>
     </defs>
     <use xlink:href="#DejaVuSans-37"/>
     <use xlink:href="#DejaVuSans-34" x="63.623047"/>
     <use xlink:href="#DejaVuSans-2e" x="127.246094"/>
     <use xlink:href="#DejaVuSans-32" x="159.033203"/>
     <use xlink:href="#DejaVuSans-38" x="222.65625"/>
    </g>
   </g>
   <g id="text_6">
    <!-- 94.06 -->
    <g transform="translate(215.393918 55.216304) scale(0.1 -0.1)">
     <defs>
      <path id="DejaVuSans-39" d="M 703 97 
L 703 672 
Q 941 559 1184 500 
Q 1428 441 1663 441 
Q 2288 441 2617 861 
Q 2947 1281 2994 2138 
Q 2813 1869 2534 1725 
Q 2256 1581 1919 1581 
Q 1219 1581 811 2004 
Q 403 2428 403 3163 
Q 403 3881 828 4315 
Q 1253 4750 1959 4750 
Q 2769 4750 3195 4129 
Q 3622 3509 3622 2328 
Q 3622 1225 3098 567 
Q 2575 -91 1691 -91 
Q 1453 -91 1209 -44 
Q 966 3 703 97 
z
M 1959 2075 
Q 2384 2075 2632 2365 
Q 2881 2656 2881 3163 
Q 2881 3666 2632 3958 
Q 2384 4250 1959 4250 
Q 1534 4250 1286 3958 
Q 1038 3666 1038 3163 
Q 1038 2656 1286 2365 
Q 1534 2075 1959 2075 
z
" transform="scale(0.015625)"/>
      <path id="DejaVuSans-36" d="M 2113 2584 
Q 1688 2584 1439 2293 
Q 1191 2003 1191 1497 
Q 1191 994 1439 701 
Q 1688 409 2113 409 
Q 2538 409 2786 701 
Q 3034 994 3034 1497 
Q 3034 2003 2786 2293 
Q 2538 2584 2113 2584 
z
M 3366 4563 
L 3366 3988 
Q 3128 4100 2886 4159 
Q 2644 4219 2406 4219 
Q 1781 4219 1451 3797 
Q 1122 3375 1075 2522 
Q 1259 2794 1537 2939 
Q 1816 3084 2150 3084 
Q 2853 3084 3261 2657 
Q 3669 2231 3669 1497 
Q 3669 778 3244 343 
Q 2819 -91 2113 -91 
Q 1303 -91 875 529 
Q 447 1150 447 2328 
Q 447 3434 972 4092 
Q 1497 4750 2381 4750 
Q 2619 4750 2861 4703 
Q 3103 4656 3366 4563 
z
" transform="scale(0.015625)"/>
     </defs>
     <use xlink:href="#DejaVuSans-39"/>
     <use xlink:href="#DejaVuSans-34" x="63.623047"/>
     <use xlink:href="#DejaVuSans-2e" x="127.246094"/>
     <use xlink:href="#DejaVuSans-30" x="159.033203"/>
     <use xlink:href="#DejaVuSans-36" x="222.65625"/>
    </g>
   </g>
   <g id="text_7">
    <!-- 287.58 -->
    <g transform="translate(381.591978 48.673268) scale(0.1 -0.1)">
     <use xlink:href="#DejaVuSans-32"/>
     <use xlink:href="#DejaVuSans-38" x="63.623047"/>
     <use xlink:href="#DejaVuSans-37" x="127.246094"/>
     <use xlink:href="#DejaVuSans-2e" x="190.869141"/>
     <use xlink:href="#DejaVuSans-35" x="222.65625"/>
     <use xlink:href="#DejaVuSans-38" x="286.279297"/>
    </g>
   </g>
   <g id="text_8">
    <!-- 49.03 -->
    <g transform="translate(67.791947 160.98589) scale(0.1 -0.1)">
     <defs>
      <path id="DejaVuSans-33" d="M 2597 2516 
Q 3050 2419 3304 2112 
Q 3559 1806 3559 1356 
Q 3559 666 3084 287 
Q 2609 -91 1734 -91 
Q 1441 -91 1130 -33 
Q 819 25 488 141 
L 488 750 
Q 750 597 1062 519 
Q 1375 441 1716 441 
Q 2309 441 2620 675 
Q 2931 909 2931 1356 
Q 2931 1769 2642 2001 
Q 2353 2234 1838 2234 
L 1294 2234 
L 1294 2753 
L 1863 2753 
Q 2328 2753 2575 2939 
Q 2822 3125 2822 3475 
Q 2822 3834 2567 4026 
Q 2313 4219 1838 4219 
Q 1578 4219 1281 4162 
Q 984 4106 628 3988 
L 628 4550 
Q 988 4650 1302 4700 
Q 1616 4750 1894 4750 
Q 2613 4750 3031 4423 
Q 3450 4097 3450 3541 
Q 3450 3153 3228 2886 
Q 3006 2619 2597 2516 
z
" transform="scale(0.015625)"/>
     </defs>
     <use xlink:href="#DejaVuSans-34"/>
     <use xlink:href="#DejaVuSans-39" x="63.623047"/>
     <use xlink:href="#DejaVuSans-2e" x="127.246094"/>
     <use xlink:href="#DejaVuSans-30" x="159.033203"/>
     <use xlink:href="#DejaVuSans-33" x="222.65625"/>
    </g>
   </g>
   <g id="text_9">
    <!-- 61.57 -->
    <g transform="translate(237.171258 173.999779) scale(0.1 -0.1)">
     <use xlink:href="#DejaVuSans-36"/>
     <use xlink:href="#DejaVuSans-31" x="63.623047"/>
     <use xlink:href="#DejaVuSans-2e" x="127.246094"/>
     <use xlink:href="#DejaVuSans-35" x="159.033203"/>
     <use xlink:href="#DejaVuSans-37" x="222.65625"/>
    </g>
   </g>
   <g id="text_10">
    <!-- 184.68 -->
    <g transform="translate(403.369318 174.041845) scale(0.1 -0.1)">
     <use xlink:href="#DejaVuSans-31"/>
     <use xlink:href="#DejaVuSans-38" x="63.623047"/>
     <use xlink:href="#DejaVuSans-34" x="127.246094"/>
     <use xlink:href="#DejaVuSans-2e" x="190.869141"/>
     <use xlink:href="#DejaVuSans-36" x="222.65625"/>
     <use xlink:href="#DejaVuSans-38" x="286.279297"/>
    </g>
   </g>
   <g id="text_11">
    <!-- 45.53 -->
    <g transform="translate(89.569287 177.992899) scale(0.1 -0.1)">
     <use xlink:href="#DejaVuSans-34"/>
     <use xlink:href="#DejaVuSans-35" x="63.623047"/>
     <use xlink:href="#DejaVuSans-2e" x="127.246094"/>
     <use xlink:href="#DejaVuSans-35" x="159.033203"/>
     <use xlink:href="#DejaVuSans-33" x="222.65625"/>
    </g>
   </g>
   <g id="text_12">
    <!-- 64.99 -->
    <g transform="translate(258.948598 161.487983) scale(0.1 -0.1)">
     <use xlink:href="#DejaVuSans-36"/>
     <use xlink:href="#DejaVuSans-34" x="63.623047"/>
     <use xlink:href="#DejaVuSans-2e" x="127.246094"/>
     <use xlink:href="#DejaVuSans-39" x="159.033203"/>
     <use xlink:href="#DejaVuSans-39" x="222.65625"/>
    </g>
   </g>
   <g id="text_13">
    <!-- 186.62 -->
    <g transform="translate(425.146658 171.674607) scale(0.1 -0.1)">
     <use xlink:href="#DejaVuSans-31"/>
     <use xlink:href="#DejaVuSans-38" x="63.623047"/>
     <use xlink:href="#DejaVuSans-36" x="127.246094"/>
     <use xlink:href="#DejaVuSans-2e" x="190.869141"/>
     <use xlink:href="#DejaVuSans-36" x="222.65625"/>
     <use xlink:href="#DejaVuSans-32" x="286.279297"/>
    </g>
   </g>
   <g id="text_14">
    <!-- 45.35 -->
    <g transform="translate(111.346627 178.886216) scale(0.1 -0.1)">
     <use xlink:href="#DejaVuSans-34"/>
     <use xlink:href="#DejaVuSans-35" x="63.623047"/>
     <use xlink:href="#DejaVuSans-2e" x="127.246094"/>
     <use xlink:href="#DejaVuSans-33" x="159.033203"/>
     <use xlink:href="#DejaVuSans-35" x="222.65625"/>
    </g>
   </g>
   <g id="text_15">
    <!-- 70.34 -->
    <g transform="translate(280.725938 141.932591) scale(0.1 -0.1)">
     <use xlink:href="#DejaVuSans-37"/>
     <use xlink:href="#DejaVuSans-30" x="63.623047"/>
     <use xlink:href="#DejaVuSans-2e" x="127.246094"/>
     <use xlink:href="#DejaVuSans-33" x="159.033203"/>
     <use xlink:href="#DejaVuSans-34" x="222.65625"/>
    </g>
   </g>
   <g id="text_16">
    <!-- 206.14 -->
    <g transform="translate(446.923998 147.888922) scale(0.1 -0.1)">
     <use xlink:href="#DejaVuSans-32"/>
     <use xlink:href="#DejaVuSans-30" x="63.623047"/>
     <use xlink:href="#DejaVuSans-36" x="127.246094"/>
     <use xlink:href="#DejaVuSans-2e" x="190.869141"/>
     <use xlink:href="#DejaVuSans-31" x="222.65625"/>
     <use xlink:href="#DejaVuSans-34" x="286.279297"/>
    </g>
   </g>
   <g id="text_17">
    <!-- 48.37 -->
    <g transform="translate(133.123967 164.224164) scale(0.1 -0.1)">
     <use xlink:href="#DejaVuSans-34"/>
     <use xlink:href="#DejaVuSans-38" x="63.623047"/>
     <use xlink:href="#DejaVuSans-2e" x="127.246094"/>
     <use xlink:href="#DejaVuSans-33" x="159.033203"/>
     <use xlink:href="#DejaVuSans-37" x="222.65625"/>
    </g>
   </g>
   <g id="text_18">
    <!-- 61.16 -->
    <g transform="translate(302.503277 175.47283) scale(0.1 -0.1)">
     <use xlink:href="#DejaVuSans-36"/>
     <use xlink:href="#DejaVuSans-31" x="63.623047"/>
     <use xlink:href="#DejaVuSans-2e" x="127.246094"/>
     <use xlink:href="#DejaVuSans-31" x="159.033203"/>
     <use xlink:href="#DejaVuSans-36" x="222.65625"/>
    </g>
   </g>
   <g id="text_19">
    <!-- 186.02 -->
    <g transform="translate(468.701338 172.403175) scale(0.1 -0.1)">
     <use xlink:href="#DejaVuSans-31"/>
     <use xlink:href="#DejaVuSans-38" x="63.623047"/>
     <use xlink:href="#DejaVuSans-36" x="127.246094"/>
     <use xlink:href="#DejaVuSans-2e" x="190.869141"/>
     <use xlink:href="#DejaVuSans-30" x="222.65625"/>
     <use xlink:href="#DejaVuSans-32" x="286.279297"/>
    </g>
   </g>
   <g id="text_20">
    <!-- 54.54 -->
    <g transform="translate(154.901307 134.244639) scale(0.1 -0.1)">
     <use xlink:href="#DejaVuSans-35"/>
     <use xlink:href="#DejaVuSans-34" x="63.623047"/>
     <use xlink:href="#DejaVuSans-2e" x="127.246094"/>
     <use xlink:href="#DejaVuSans-35" x="159.033203"/>
     <use xlink:href="#DejaVuSans-34" x="222.65625"/>
    </g>
   </g>
   <g id="text_21">
    <!-- 67.61 -->
    <g transform="translate(324.280617 151.914979) scale(0.1 -0.1)">
     <use xlink:href="#DejaVuSans-36"/>
     <use xlink:href="#DejaVuSans-37" x="63.623047"/>
     <use xlink:href="#DejaVuSans-2e" x="127.246094"/>
     <use xlink:href="#DejaVuSans-36" x="159.033203"/>
     <use xlink:href="#DejaVuSans-31" x="222.65625"/>
    </g>
   </g>
   <g id="text_22">
    <!-- 213.74 -->
    <g transform="translate(490.478678 138.635617) scale(0.1 -0.1)">
     <use xlink:href="#DejaVuSans-32"/>
     <use xlink:href="#DejaVuSans-31" x="63.623047"/>
     <use xlink:href="#DejaVuSans-33" x="127.246094"/>
     <use xlink:href="#DejaVuSans-2e" x="190.869141"/>
     <use xlink:href="#DejaVuSans-37" x="222.65625"/>
     <use xlink:href="#DejaVuSans-34" x="286.279297"/>
    </g>
   </g>
   <g id="text_23">
    <!-- 47.81 -->
    <g transform="translate(176.678647 166.899261) scale(0.1 -0.1)">
     <use xlink:href="#DejaVuSans-34"/>
     <use xlink:href="#DejaVuSans-37" x="63.623047"/>
     <use xlink:href="#DejaVuSans-2e" x="127.246094"/>
     <use xlink:href="#DejaVuSans-38" x="159.033203"/>
     <use xlink:href="#DejaVuSans-31" x="222.65625"/>
    </g>
   </g>
   <g id="text_24">
    <!-- 64.96 -->
    <g transform="translate(346.057957 161.601295) scale(0.1 -0.1)">
     <use xlink:href="#DejaVuSans-36"/>
     <use xlink:href="#DejaVuSans-34" x="63.623047"/>
     <use xlink:href="#DejaVuSans-2e" x="127.246094"/>
     <use xlink:href="#DejaVuSans-39" x="159.033203"/>
     <use xlink:href="#DejaVuSans-36" x="222.65625"/>
    </g>
   </g>
   <g id="text_25">
    <!-- 189.38 -->
    <g transform="translate(512.256018 168.308329) scale(0.1 -0.1)">
     <use xlink:href="#DejaVuSans-31"/>
     <use xlink:href="#DejaVuSans-38" x="63.623047"/>
     <use xlink:href="#DejaVuSans-39" x="127.246094"/>
     <use xlink:href="#DejaVuSans-2e" x="190.869141"/>
     <use xlink:href="#DejaVuSans-33" x="222.65625"/>
     <use xlink:href="#DejaVuSans-38" x="286.279297"/>
    </g>
   </g>
   <g id="text_26">
    <!-- Shadow stack (Hotspot) -->
    <g transform="translate(223.446875 19.44) scale(0.12 -0.12)">
     <defs>
      <path id="DejaVuSans-53" d="M 3425 4513 
L 3425 3897 
Q 3066 4069 2747 4153 
Q 2428 4238 2131 4238 
Q 1616 4238 1336 4038 
Q 1056 3838 1056 3469 
Q 1056 3159 1242 3001 
Q 1428 2844 1947 2747 
L 2328 2669 
Q 3034 2534 3370 2195 
Q 3706 1856 3706 1288 
Q 3706 609 3251 259 
Q 2797 -91 1919 -91 
Q 1588 -91 1214 -16 
Q 841 59 441 206 
L 441 856 
Q 825 641 1194 531 
Q 1563 422 1919 422 
Q 2459 422 2753 634 
Q 3047 847 3047 1241 
Q 3047 1584 2836 1778 
Q 2625 1972 2144 2069 
L 1759 2144 
Q 1053 2284 737 2584 
Q 422 2884 422 3419 
Q 422 4038 858 4394 
Q 1294 4750 2059 4750 
Q 2388 4750 2728 4690 
Q 3069 4631 3425 4513 
z
" transform="scale(0.015625)"/>
      <path id="DejaVuSans-68" d="M 3513 2113 
L 3513 0 
L 2938 0 
L 2938 2094 
Q 2938 2591 2744 2837 
Q 2550 3084 2163 3084 
Q 1697 3084 1428 2787 
Q 1159 2491 1159 1978 
L 1159 0 
L 581 0 
L 581 4863 
L 1159 4863 
L 1159 2956 
Q 1366 3272 1645 3428 
Q 1925 3584 2291 3584 
Q 2894 3584 3203 3211 
Q 3513 2838 3513 2113 
z
" transform="scale(0.015625)"/>
      <path id="DejaVuSans-61" d="M 2194 1759 
Q 1497 1759 1228 1600 
Q 959 1441 959 1056 
Q 959 750 1161 570 
Q 1363 391 1709 391 
Q 2188 391 2477 730 
Q 2766 1069 2766 1631 
L 2766 1759 
L 2194 1759 
z
M 3341 1997 
L 3341 0 
L 2766 0 
L 2766 531 
Q 2569 213 2275 61 
Q 1981 -91 1556 -91 
Q 1019 -91 701 211 
Q 384 513 384 1019 
Q 384 1609 779 1909 
Q 1175 2209 1959 2209 
L 2766 2209 
L 2766 2266 
Q 2766 2663 2505 2880 
Q 2244 3097 1772 3097 
Q 1472 3097 1187 3025 
Q 903 2953 641 2809 
L 641 3341 
Q 956 3463 1253 3523 
Q 1550 3584 1831 3584 
Q 2591 3584 2966 3190 
Q 3341 2797 3341 1997 
z
" transform="scale(0.015625)"/>
      <path id="DejaVuSans-64" d="M 2906 2969 
L 2906 4863 
L 3481 4863 
L 3481 0 
L 2906 0 
L 2906 525 
Q 2725 213 2448 61 
Q 2172 -91 1784 -91 
Q 1150 -91 751 415 
Q 353 922 353 1747 
Q 353 2572 751 3078 
Q 1150 3584 1784 3584 
Q 2172 3584 2448 3432 
Q 2725 3281 2906 2969 
z
M 947 1747 
Q 947 1113 1208 752 
Q 1469 391 1925 391 
Q 2381 391 2643 752 
Q 2906 1113 2906 1747 
Q 2906 2381 2643 2742 
Q 2381 3103 1925 3103 
Q 1469 3103 1208 2742 
Q 947 2381 947 1747 
z
" transform="scale(0.015625)"/>
      <path id="DejaVuSans-6f" d="M 1959 3097 
Q 1497 3097 1228 2736 
Q 959 2375 959 1747 
Q 959 1119 1226 758 
Q 1494 397 1959 397 
Q 2419 397 2687 759 
Q 2956 1122 2956 1747 
Q 2956 2369 2687 2733 
Q 2419 3097 1959 3097 
z
M 1959 3584 
Q 2709 3584 3137 3096 
Q 3566 2609 3566 1747 
Q 3566 888 3137 398 
Q 2709 -91 1959 -91 
Q 1206 -91 779 398 
Q 353 888 353 1747 
Q 353 2609 779 3096 
Q 1206 3584 1959 3584 
z
" transform="scale(0.015625)"/>
      <path id="DejaVuSans-77" d="M 269 3500 
L 844 3500 
L 1563 769 
L 2278 3500 
L 2956 3500 
L 3675 769 
L 4391 3500 
L 4966 3500 
L 4050 0 
L 3372 0 
L 2619 2869 
L 1863 0 
L 1184 0 
L 269 3500 
z
" transform="scale(0.015625)"/>
      <path id="DejaVuSans-20" transform="scale(0.015625)"/>
      <path id="DejaVuSans-74" d="M 1172 4494 
L 1172 3500 
L 2356 3500 
L 2356 3053 
L 1172 3053 
L 1172 1153 
Q 1172 725 1289 603 
Q 1406 481 1766 481 
L 2356 481 
L 2356 0 
L 1766 0 
Q 1100 0 847 248 
Q 594 497 594 1153 
L 594 3053 
L 172 3053 
L 172 3500 
L 594 3500 
L 594 4494 
L 1172 4494 
z
" transform="scale(0.015625)"/>
      <path id="DejaVuSans-63" d="M 3122 3366 
L 3122 2828 
Q 2878 2963 2633 3030 
Q 2388 3097 2138 3097 
Q 1578 3097 1268 2742 
Q 959 2388 959 1747 
Q 959 1106 1268 751 
Q 1578 397 2138 397 
Q 2388 397 2633 464 
Q 2878 531 3122 666 
L 3122 134 
Q 2881 22 2623 -34 
Q 2366 -91 2075 -91 
Q 1284 -91 818 406 
Q 353 903 353 1747 
Q 353 2603 823 3093 
Q 1294 3584 2113 3584 
Q 2378 3584 2631 3529 
Q 2884 3475 3122 3366 
z
" transform="scale(0.015625)"/>
      <path id="DejaVuSans-6b" d="M 581 4863 
L 1159 4863 
L 1159 1991 
L 2875 3500 
L 3609 3500 
L 1753 1863 
L 3688 0 
L 2938 0 
L 1159 1709 
L 1159 0 
L 581 0 
L 581 4863 
z
" transform="scale(0.015625)"/>
      <path id="DejaVuSans-28" d="M 1984 4856 
Q 1566 4138 1362 3434 
Q 1159 2731 1159 2009 
Q 1159 1288 1364 580 
Q 1569 -128 1984 -844 
L 1484 -844 
Q 1016 -109 783 600 
Q 550 1309 550 2009 
Q 550 2706 781 3412 
Q 1013 4119 1484 4856 
L 1984 4856 
z
" transform="scale(0.015625)"/>
      <path id="DejaVuSans-48" d="M 628 4666 
L 1259 4666 
L 1259 2753 
L 3553 2753 
L 3553 4666 
L 4184 4666 
L 4184 0 
L 3553 0 
L 3553 2222 
L 1259 2222 
L 1259 0 
L 628 0 
L 628 4666 
z
" transform="scale(0.015625)"/>
      <path id="DejaVuSans-70" d="M 1159 525 
L 1159 -1331 
L 581 -1331 
L 581 3500 
L 1159 3500 
L 1159 2969 
Q 1341 3281 1617 3432 
Q 1894 3584 2278 3584 
Q 2916 3584 3314 3078 
Q 3713 2572 3713 1747 
Q 3713 922 3314 415 
Q 2916 -91 2278 -91 
Q 1894 -91 1617 61 
Q 1341 213 1159 525 
z
M 3116 1747 
Q 3116 2381 2855 2742 
Q 2594 3103 2138 3103 
Q 1681 3103 1420 2742 
Q 1159 2381 1159 1747 
Q 1159 1113 1420 752 
Q 1681 391 2138 391 
Q 2594 391 2855 752 
Q 3116 1113 3116 1747 
z
" transform="scale(0.015625)"/>
      <path id="DejaVuSans-29" d="M 513 4856 
L 1013 4856 
Q 1481 4119 1714 3412 
Q 1947 2706 1947 2009 
Q 1947 1309 1714 600 
Q 1481 -109 1013 -844 
L 513 -844 
Q 928 -128 1133 580 
Q 1338 1288 1338 2009 
Q 1338 2731 1133 3434 
Q 928 4138 513 4856 
z
" transform="scale(0.015625)"/>
     </defs>
     <use xlink:href="#DejaVuSans-53"/>
     <use xlink:href="#DejaVuSans-68" x="63.476562"/>
     <use xlink:href="#DejaVuSans-61" x="126.855469"/>
     <use xlink:href="#DejaVuSans-64" x="188.134766"/>
     <use xlink:href="#DejaVuSans-6f" x="251.611328"/>
     <use xlink:href="#DejaVuSans-77" x="312.792969"/>
     <use xlink:href="#DejaVuSans-20" x="394.580078"/>
     <use xlink:href="#DejaVuSans-73" x="426.367188"/>
     <use xlink:href="#DejaVuSans-74" x="478.466797"/>
     <use xlink:href="#DejaVuSans-61" x="517.675781"/>
     <use xlink:href="#DejaVuSans-63" x="578.955078"/>
     <use xlink:href="#DejaVuSans-6b" x="633.935547"/>
     <use xlink:href="#DejaVuSans-20" x="691.845703"/>
     <use xlink:href="#DejaVuSans-28" x="723.632812"/>
     <use xlink:href="#DejaVuSans-48" x="762.646484"/>
     <use xlink:href="#DejaVuSans-6f" x="837.841797"/>
     <use xlink:href="#DejaVuSans-74" x="899.023438"/>
     <use xlink:href="#DejaVuSans-73" x="938.232422"/>
     <use xlink:href="#DejaVuSans-70" x="990.332031"/>
     <use xlink:href="#DejaVuSans-6f" x="1053.808594"/>
     <use xlink:href="#DejaVuSans-74" x="1114.990234"/>
     <use xlink:href="#DejaVuSans-29" x="1154.199219"/>
    </g>
   </g>
   <g id="legend_1">
    <g id="patch_28">
     <path d="M 393.673437 136.186875 
L 558.2 136.186875 
Q 560.2 136.186875 560.2 134.186875 
L 560.2 32.44 
Q 560.2 30.44 558.2 30.44 
L 393.673437 30.44 
Q 391.673437 30.44 391.673437 32.44 
L 391.673437 134.186875 
Q 391.673437 136.186875 393.673437 136.186875 
z
" style="fill: #ffffff; opacity: 0.8; stroke: #cccccc; stroke-linejoin: miter"/>
    </g>
    <g id="patch_29">
     <path d="M 395.673437 42.038437 
L 415.673437 42.038437 
L 415.673437 35.038437 
L 395.673437 35.038437 
z
" style="fill: #1f77b4"/>
    </g>
    <g id="text_27">
     <!-- boxed -->
     <g transform="translate(423.673437 42.038437) scale(0.1 -0.1)">
      <defs>
       <path id="DejaVuSans-62" d="M 3116 1747 
Q 3116 2381 2855 2742 
Q 2594 3103 2138 3103 
Q 1681 3103 1420 2742 
Q 1159 2381 1159 1747 
Q 1159 1113 1420 752 
Q 1681 391 2138 391 
Q 2594 391 2855 752 
Q 3116 1113 3116 1747 
z
M 1159 2969 
Q 1341 3281 1617 3432 
Q 1894 3584 2278 3584 
Q 2916 3584 3314 3078 
Q 3713 2572 3713 1747 
Q 3713 922 3314 415 
Q 2916 -91 2278 -91 
Q 1894 -91 1617 61 
Q 1341 213 1159 525 
L 1159 0 
L 581 0 
L 581 4863 
L 1159 4863 
L 1159 2969 
z
" transform="scale(0.015625)"/>
       <path id="DejaVuSans-78" d="M 3513 3500 
L 2247 1797 
L 3578 0 
L 2900 0 
L 1881 1375 
L 863 0 
L 184 0 
L 1544 1831 
L 300 3500 
L 978 3500 
L 1906 2253 
L 2834 3500 
L 3513 3500 
z
" transform="scale(0.015625)"/>
       <path id="DejaVuSans-65" d="M 3597 1894 
L 3597 1613 
L 953 1613 
Q 991 1019 1311 708 
Q 1631 397 2203 397 
Q 2534 397 2845 478 
Q 3156 559 3463 722 
L 3463 178 
Q 3153 47 2828 -22 
Q 2503 -91 2169 -91 
Q 1331 -91 842 396 
Q 353 884 353 1716 
Q 353 2575 817 3079 
Q 1281 3584 2069 3584 
Q 2775 3584 3186 3129 
Q 3597 2675 3597 1894 
z
M 3022 2063 
Q 3016 2534 2758 2815 
Q 2500 3097 2075 3097 
Q 1594 3097 1305 2825 
Q 1016 2553 972 2059 
L 3022 2063 
z
" transform="scale(0.015625)"/>
      </defs>
      <use xlink:href="#DejaVuSans-62"/>
      <use xlink:href="#DejaVuSans-6f" x="63.476562"/>
      <use xlink:href="#DejaVuSans-78" x="121.533203"/>
      <use xlink:href="#DejaVuSans-65" x="177.587891"/>
      <use xlink:href="#DejaVuSans-64" x="239.111328"/>
     </g>
    </g>
    <g id="patch_30">
     <path d="M 395.673437 56.716563 
L 415.673437 56.716563 
L 415.673437 49.716563 
L 395.673437 49.716563 
z
" style="fill: #ff7f0e"/>
    </g>
    <g id="text_28">
     <!-- boxedWithExistingStorage -->
     <g transform="translate(423.673437 56.716563) scale(0.1 -0.1)">
      <defs>
       <path id="DejaVuSans-57" d="M 213 4666 
L 850 4666 
L 1831 722 
L 2809 4666 
L 3519 4666 
L 4500 722 
L 5478 4666 
L 6119 4666 
L 4947 0 
L 4153 0 
L 3169 4050 
L 2175 0 
L 1381 0 
L 213 4666 
z
" transform="scale(0.015625)"/>
       <path id="DejaVuSans-69" d="M 603 3500 
L 1178 3500 
L 1178 0 
L 603 0 
L 603 3500 
z
M 603 4863 
L 1178 4863 
L 1178 4134 
L 603 4134 
L 603 4863 
z
" transform="scale(0.015625)"/>
       <path id="DejaVuSans-45" d="M 628 4666 
L 3578 4666 
L 3578 4134 
L 1259 4134 
L 1259 2753 
L 3481 2753 
L 3481 2222 
L 1259 2222 
L 1259 531 
L 3634 531 
L 3634 0 
L 628 0 
L 628 4666 
z
" transform="scale(0.015625)"/>
       <path id="DejaVuSans-67" d="M 2906 1791 
Q 2906 2416 2648 2759 
Q 2391 3103 1925 3103 
Q 1463 3103 1205 2759 
Q 947 2416 947 1791 
Q 947 1169 1205 825 
Q 1463 481 1925 481 
Q 2391 481 2648 825 
Q 2906 1169 2906 1791 
z
M 3481 434 
Q 3481 -459 3084 -895 
Q 2688 -1331 1869 -1331 
Q 1566 -1331 1297 -1286 
Q 1028 -1241 775 -1147 
L 775 -588 
Q 1028 -725 1275 -790 
Q 1522 -856 1778 -856 
Q 2344 -856 2625 -561 
Q 2906 -266 2906 331 
L 2906 616 
Q 2728 306 2450 153 
Q 2172 0 1784 0 
Q 1141 0 747 490 
Q 353 981 353 1791 
Q 353 2603 747 3093 
Q 1141 3584 1784 3584 
Q 2172 3584 2450 3431 
Q 2728 3278 2906 2969 
L 2906 3500 
L 3481 3500 
L 3481 434 
z
" transform="scale(0.015625)"/>
       <path id="DejaVuSans-72" d="M 2631 2963 
Q 2534 3019 2420 3045 
Q 2306 3072 2169 3072 
Q 1681 3072 1420 2755 
Q 1159 2438 1159 1844 
L 1159 0 
L 581 0 
L 581 3500 
L 1159 3500 
L 1159 2956 
Q 1341 3275 1631 3429 
Q 1922 3584 2338 3584 
Q 2397 3584 2469 3576 
Q 2541 3569 2628 3553 
L 2631 2963 
z
" transform="scale(0.015625)"/>
      </defs>
      <use xlink:href="#DejaVuSans-62"/>
      <use xlink:href="#DejaVuSans-6f" x="63.476562"/>
      <use xlink:href="#DejaVuSans-78" x="121.533203"/>
      <use xlink:href="#DejaVuSans-65" x="177.587891"/>
      <use xlink:href="#DejaVuSans-64" x="239.111328"/>
      <use xlink:href="#DejaVuSans-57" x="302.587891"/>
      <use xlink:href="#DejaVuSans-69" x="399.214844"/>
      <use xlink:href="#DejaVuSans-74" x="426.998047"/>
      <use xlink:href="#DejaVuSans-68" x="466.207031"/>
      <use xlink:href="#DejaVuSans-45" x="529.585938"/>
      <use xlink:href="#DejaVuSans-78" x="592.769531"/>
      <use xlink:href="#DejaVuSans-69" x="651.949219"/>
      <use xlink:href="#DejaVuSans-73" x="679.732422"/>
      <use xlink:href="#DejaVuSans-74" x="731.832031"/>
      <use xlink:href="#DejaVuSans-69" x="771.041016"/>
      <use xlink:href="#DejaVuSans-6e" x="798.824219"/>
      <use xlink:href="#DejaVuSans-67" x="862.203125"/>
      <use xlink:href="#DejaVuSans-53" x="925.679688"/>
      <use xlink:href="#DejaVuSans-74" x="989.15625"/>
      <use xlink:href="#DejaVuSans-6f" x="1028.365234"/>
      <use xlink:href="#DejaVuSans-72" x="1089.546875"/>
      <use xlink:href="#DejaVuSans-61" x="1130.660156"/>
      <use xlink:href="#DejaVuSans-67" x="1191.939453"/>
      <use xlink:href="#DejaVuSans-65" x="1255.416016"/>
     </g>
    </g>
    <g id="patch_31">
     <path d="M 395.673437 71.394687 
L 415.673437 71.394687 
L 415.673437 64.394687 
L 395.673437 64.394687 
z
" style="fill: #2ca02c"/>
    </g>
    <g id="text_29">
     <!-- boxedWithNewStorage -->
     <g transform="translate(423.673437 71.394687) scale(0.1 -0.1)">
      <defs>
       <path id="DejaVuSans-4e" d="M 628 4666 
L 1478 4666 
L 3547 763 
L 3547 4666 
L 4159 4666 
L 4159 0 
L 3309 0 
L 1241 3903 
L 1241 0 
L 628 0 
L 628 4666 
z
" transform="scale(0.015625)"/>
      </defs>
      <use xlink:href="#DejaVuSans-62"/>
      <use xlink:href="#DejaVuSans-6f" x="63.476562"/>
      <use xlink:href="#DejaVuSans-78" x="121.533203"/>
      <use xlink:href="#DejaVuSans-65" x="177.587891"/>
      <use xlink:href="#DejaVuSans-64" x="239.111328"/>
      <use xlink:href="#DejaVuSans-57" x="302.587891"/>
      <use xlink:href="#DejaVuSans-69" x="399.214844"/>
      <use xlink:href="#DejaVuSans-74" x="426.998047"/>
      <use xlink:href="#DejaVuSans-68" x="466.207031"/>
      <use xlink:href="#DejaVuSans-4e" x="529.585938"/>
      <use xlink:href="#DejaVuSans-65" x="604.390625"/>
      <use xlink:href="#DejaVuSans-77" x="665.914062"/>
      <use xlink:href="#DejaVuSans-53" x="747.701172"/>
      <use xlink:href="#DejaVuSans-74" x="811.177734"/>
      <use xlink:href="#DejaVuSans-6f" x="850.386719"/>
      <use xlink:href="#DejaVuSans-72" x="911.568359"/>
      <use xlink:href="#DejaVuSans-61" x="952.681641"/>
      <use xlink:href="#DejaVuSans-67" x="1013.960938"/>
      <use xlink:href="#DejaVuSans-65" x="1077.4375"/>
     </g>
    </g>
    <g id="patch_32">
     <path d="M 395.673437 86.072812 
L 415.673437 86.072812 
L 415.673437 79.072812 
L 395.673437 79.072812 
z
" style="fill: #d62728"/>
    </g>
    <g id="text_30">
     <!-- existingShadow -->
     <g transform="translate(423.673437 86.072812) scale(0.1 -0.1)">
      <use xlink:href="#DejaVuSans-65"/>
      <use xlink:href="#DejaVuSans-78" x="59.773438"/>
      <use xlink:href="#DejaVuSans-69" x="118.953125"/>
      <use xlink:href="#DejaVuSans-73" x="146.736328"/>
      <use xlink:href="#DejaVuSans-74" x="198.835938"/>
      <use xlink:href="#DejaVuSans-69" x="238.044922"/>
      <use xlink:href="#DejaVuSans-6e" x="265.828125"/>
      <use xlink:href="#DejaVuSans-67" x="329.207031"/>
      <use xlink:href="#DejaVuSans-53" x="392.683594"/>
      <use xlink:href="#DejaVuSans-68" x="456.160156"/>
      <use xlink:href="#DejaVuSans-61" x="519.539062"/>
      <use xlink:href="#DejaVuSans-64" x="580.818359"/>
      <use xlink:href="#DejaVuSans-6f" x="644.294922"/>
      <use xlink:href="#DejaVuSans-77" x="705.476562"/>
     </g>
    </g>
    <g id="patch_33">
     <path d="M 395.673437 100.750937 
L 415.673437 100.750937 
L 415.673437 93.750937 
L 395.673437 93.750937 
z
" style="fill: #9467bd"/>
    </g>
    <g id="text_31">
     <!-- existingShadowWithCache -->
     <g transform="translate(423.673437 100.750937) scale(0.1 -0.1)">
      <defs>
       <path id="DejaVuSans-43" d="M 4122 4306 
L 4122 3641 
Q 3803 3938 3442 4084 
Q 3081 4231 2675 4231 
Q 1875 4231 1450 3742 
Q 1025 3253 1025 2328 
Q 1025 1406 1450 917 
Q 1875 428 2675 428 
Q 3081 428 3442 575 
Q 3803 722 4122 1019 
L 4122 359 
Q 3791 134 3420 21 
Q 3050 -91 2638 -91 
Q 1578 -91 968 557 
Q 359 1206 359 2328 
Q 359 3453 968 4101 
Q 1578 4750 2638 4750 
Q 3056 4750 3426 4639 
Q 3797 4528 4122 4306 
z
" transform="scale(0.015625)"/>
      </defs>
      <use xlink:href="#DejaVuSans-65"/>
      <use xlink:href="#DejaVuSans-78" x="59.773438"/>
      <use xlink:href="#DejaVuSans-69" x="118.953125"/>
      <use xlink:href="#DejaVuSans-73" x="146.736328"/>
      <use xlink:href="#DejaVuSans-74" x="198.835938"/>
      <use xlink:href="#DejaVuSans-69" x="238.044922"/>
      <use xlink:href="#DejaVuSans-6e" x="265.828125"/>
      <use xlink:href="#DejaVuSans-67" x="329.207031"/>
      <use xlink:href="#DejaVuSans-53" x="392.683594"/>
      <use xlink:href="#DejaVuSans-68" x="456.160156"/>
      <use xlink:href="#DejaVuSans-61" x="519.539062"/>
      <use xlink:href="#DejaVuSans-64" x="580.818359"/>
      <use xlink:href="#DejaVuSans-6f" x="644.294922"/>
      <use xlink:href="#DejaVuSans-77" x="705.476562"/>
      <use xlink:href="#DejaVuSans-57" x="787.263672"/>
      <use xlink:href="#DejaVuSans-69" x="883.890625"/>
      <use xlink:href="#DejaVuSans-74" x="911.673828"/>
      <use xlink:href="#DejaVuSans-68" x="950.882812"/>
      <use xlink:href="#DejaVuSans-43" x="1014.261719"/>
      <use xlink:href="#DejaVuSans-61" x="1084.085938"/>
      <use xlink:href="#DejaVuSans-63" x="1145.365234"/>
      <use xlink:href="#DejaVuSans-68" x="1200.345703"/>
      <use xlink:href="#DejaVuSans-65" x="1263.724609"/>
     </g>
    </g>
    <g id="patch_34">
     <path d="M 395.673437 115.429062 
L 415.673437 115.429062 
L 415.673437 108.429062 
L 395.673437 108.429062 
z
" style="fill: #8c564b"/>
    </g>
    <g id="text_32">
     <!-- newShadow -->
     <g transform="translate(423.673437 115.429062) scale(0.1 -0.1)">
      <use xlink:href="#DejaVuSans-6e"/>
      <use xlink:href="#DejaVuSans-65" x="63.378906"/>
      <use xlink:href="#DejaVuSans-77" x="124.902344"/>
      <use xlink:href="#DejaVuSans-53" x="206.689453"/>
      <use xlink:href="#DejaVuSans-68" x="270.166016"/>
      <use xlink:href="#DejaVuSans-61" x="333.544922"/>
      <use xlink:href="#DejaVuSans-64" x="394.824219"/>
      <use xlink:href="#DejaVuSans-6f" x="458.300781"/>
      <use xlink:href="#DejaVuSans-77" x="519.482422"/>
     </g>
    </g>
    <g id="patch_35">
     <path d="M 395.673437 130.107188 
L 415.673437 130.107188 
L 415.673437 123.107188 
L 395.673437 123.107188 
z
" style="fill: #e377c2"/>
    </g>
    <g id="text_33">
     <!-- newShadowWithCache -->
     <g transform="translate(423.673437 130.107188) scale(0.1 -0.1)">
      <use xlink:href="#DejaVuSans-6e"/>
      <use xlink:href="#DejaVuSans-65" x="63.378906"/>
      <use xlink:href="#DejaVuSans-77" x="124.902344"/>
      <use xlink:href="#DejaVuSans-53" x="206.689453"/>
      <use xlink:href="#DejaVuSans-68" x="270.166016"/>
      <use xlink:href="#DejaVuSans-61" x="333.544922"/>
      <use xlink:href="#DejaVuSans-64" x="394.824219"/>
      <use xlink:href="#DejaVuSans-6f" x="458.300781"/>
      <use xlink:href="#DejaVuSans-77" x="519.482422"/>
      <use xlink:href="#DejaVuSans-57" x="601.269531"/>
      <use xlink:href="#DejaVuSans-69" x="697.896484"/>
      <use xlink:href="#DejaVuSans-74" x="725.679688"/>
      <use xlink:href="#DejaVuSans-68" x="764.888672"/>
      <use xlink:href="#DejaVuSans-43" x="828.267578"/>
      <use xlink:href="#DejaVuSans-61" x="898.091797"/>
      <use xlink:href="#DejaVuSans-63" x="959.371094"/>
      <use xlink:href="#DejaVuSans-68" x="1014.351562"/>
      <use xlink:href="#DejaVuSans-65" x="1077.730469"/>
     </g>
    </g>
   </g>
  </g>
 </g>
 <defs>
  <clipPath id="p426a6d44e7">
   <rect x="24.88" y="25.44" width="540.32" height="378.68"/>
  </clipPath>
 </defs>
</svg>
